<?xml version="1.0"?>
<svg xmlns="http://www.w3.org/2000/svg" xmlns:xlink="http://www.w3.org/1999/xlink" xmlns:svgjs="http://svgjs.com/svgjs" version="1.1" width="512" height="512" x="0" y="0" viewBox="0 0 64 64" style="enable-background:new 0 0 512 512" xml:space="preserve" class=""><circle r="32" cx="32" cy="32" fill="#56dbaf" shape="circle"/><g transform="matrix(0.7,0,0,0.7,9.921299171447757,9.528794002532962)"><path xmlns="http://www.w3.org/2000/svg" d="m17 21.36a.5.5 0 0 1 -.352-.85c.11-.1 1.13-.99 3.678-.184a.5.5 0 0 1 -.3.953c-1.963-.621-2.689-.044-2.7-.037a.513.513 0 0 1 -.326.118z" fill="#121212" data-original="#000000" style="" class=""/><path xmlns="http://www.w3.org/2000/svg" d="m32.443 21.37a.513.513 0 0 1 -.187-.036c-1.023-.414-3.8-.674-4.283-.313a.5.5 0 1 1 -.6-.8c1.009-.748 4.367-.172 5.256.187a.5.5 0 0 1 -.188.964z" fill="#121212" data-original="#000000" style="" class=""/><path xmlns="http://www.w3.org/2000/svg" d="m20.174 24.25a.5.5 0 0 1 -.312-.109 1.72 1.72 0 0 0 -2.145 0 .5.5 0 0 1 -.627-.78 2.72 2.72 0 0 1 3.395 0 .5.5 0 0 1 -.311.891z" fill="#121212" data-original="#000000" style="" class=""/><path xmlns="http://www.w3.org/2000/svg" d="m31.323 24.28a.5.5 0 0 1 -.312-.109 1.736 1.736 0 0 0 -2.157 0 .5.5 0 1 1 -.623-.781 2.732 2.732 0 0 1 3.4 0 .5.5 0 0 1 -.313.89z" fill="#121212" data-original="#000000" style="" class=""/><path xmlns="http://www.w3.org/2000/svg" d="m24.688 33.623c-.038 0-.076 0-.114 0a2.292 2.292 0 0 1 -1.762-.816.5.5 0 0 1 .793-.61 1.333 1.333 0 0 0 1.006.427 2.1 2.1 0 0 0 1.584-.645.5.5 0 0 1 .746.666 3.037 3.037 0 0 1 -2.253.978z" fill="#121212" data-original="#000000" style="" class=""/><path xmlns="http://www.w3.org/2000/svg" d="m23.633 30.553a1.192 1.192 0 0 1 -.766-.289 1.162 1.162 0 0 1 -.442-1.132.5.5 0 0 1 .975.216.377.377 0 0 0 .161.184.133.133 0 0 0 .136 0 .5.5 0 0 1 .422.906 1.136 1.136 0 0 1 -.486.115z" fill="#121212" data-original="#000000" style="" class=""/><path xmlns="http://www.w3.org/2000/svg" d="m55.015 42.508a5.128 5.128 0 0 0 -3.615-4.276c-1.942-.6-2.9-1.639-3-3.271-.018-.313-.028-.628-.038-.943-.047-1.539-.095-3.13-1.172-4.116a3.965 3.965 0 0 0 -2.69-.866 6.3 6.3 0 0 0 .035-2.318c2.815-6.253 1.532-14.934-2.9-19.424a15.428 15.428 0 0 0 -11.8-4.3 13.3 13.3 0 0 0 -10.986 2.214c-4.981 3.687-7.293 10.512-7.633 14.2-.424 4.709-.3 9.784 4.154 10.609a2.554 2.554 0 0 0 .763-.017c.1.992.252 2 .54 3.487.647 3.257 4.888 6.67 8.56 6.892q.369.023.742.022a13.183 13.183 0 0 0 1.525-.1c.647 1.711.641 3.884-.071 4.412a9.586 9.586 0 0 1 -1.368.689l-.245.109c-2.963 1.316-8.481 3.765-11 8.845-1.073 2.164-.178 3.4.763 4.064 1.808 1.255 4.656 2.027 8.453 2.342a50.445 50.445 0 0 0 5.527.106 48.779 48.779 0 0 0 11.635-2.206 19.645 19.645 0 0 0 3.419-1.434c1.149-.631 2.813-1.71 2.429-3.421-.039-.17-.1-.319-.142-.479a4.635 4.635 0 0 0 2.668-1.328 2.545 2.545 0 0 0 .683-2.008c-.081-.789 1.042-1.436 1.944-1.957.247-.142.479-.276.675-.4a5.22 5.22 0 0 0 2.145-5.127zm-39.495-13.477c-2.9-.632-3.861-3.393-3.308-9.531.31-3.375 2.549-10.021 7.232-13.488a12.357 12.357 0 0 1 10.273-2.029.49.49 0 0 0 .153.008 14.611 14.611 0 0 1 11.058 4.009c3.925 3.98 5.215 11.484 3.119 17.28a3.248 3.248 0 0 0 -2.185-1.727 3.989 3.989 0 0 0 -3.226.868 3.633 3.633 0 0 0 -.727.855 2.245 2.245 0 0 1 -.431-.02c-2.267-.227-3.107-3.274-4.073-6.741-.758-2.717-1.541-5.527-3.152-7.427a2.4 2.4 0 0 0 -2.42-.777 16.072 16.072 0 0 0 -11.767 11.408 14.446 14.446 0 0 0 .079 5.978c.083.463.31 1.076.165 1.257s-.52.093-.79.077zm12.511 16.481c1.22-.905 1.1-3.521.48-5.356h.028a16.836 16.836 0 0 0 3.01-.835.5.5 0 1 0 -.352-.935 15.908 15.908 0 0 1 -2.838.787 12.326 12.326 0 0 1 -3.065.212c-3.224-.194-7.08-3.268-7.64-6.086a32.433 32.433 0 0 1 -.551-3.683c.322-.4.2-1.138.026-2.091a13.572 13.572 0 0 1 -.088-5.58 15.056 15.056 0 0 1 11.041-10.669 1.42 1.42 0 0 1 1.409.457c1.469 1.732 2.222 4.434 2.95 7.047 1.039 3.726 2.023 7.255 5.033 7.48.1.008.315.011.487.013a.737.737 0 0 0 .662-.273 3.559 3.559 0 0 1 .655-.815 2.984 2.984 0 0 1 2.364-.66c1.754.4 2.271 2.562 1.869 4.4a4.617 4.617 0 0 1 -1.855 2.862 2.275 2.275 0 0 1 -1.78.337 2.867 2.867 0 0 1 -1.147-.643.506.506 0 0 0 -.5-.068.5.5 0 0 0 -.3.4 8.02 8.02 0 0 1 -3.5 5.108.5.5 0 0 0 .283.912.519.519 0 0 0 .106-.033c-.027 1.5.122 4.312 1.431 6.121a7.323 7.323 0 0 1 -4.593 2.844c-.287.071-.7 1.011-1.155 2.36a7.237 7.237 0 0 1 -3.173-.027c.133-.35.252-.648.349-.888.339-.837.525-1.3.068-1.6a5.936 5.936 0 0 1 -.723-.549 5.744 5.744 0 0 0 1.009-.549zm-3.12 14.312a47.879 47.879 0 0 1 2.081-9.806 4.862 4.862 0 0 0 1.725.27 11.642 11.642 0 0 0 1.438-.1c-1.05 3.4-2.2 8.31-2.531 9.733a23.774 23.774 0 0 1 -2.713-.097zm27.408-13.032c-.18.118-.4.242-.624.374-1.091.63-2.586 1.492-2.438 2.925a1.556 1.556 0 0 1 -.431 1.236 3.677 3.677 0 0 1 -2.246 1.034c-1.286-3.325-4.538-6.082-8.655-8.183a2.3 2.3 0 0 1 -.7-.612c-1.576-1.858-1.439-5.582-1.381-6.475a9.14 9.14 0 0 0 2.9-4.371 2.991 2.991 0 0 0 .91.377 3.288 3.288 0 0 0 2.538-.467 5.405 5.405 0 0 0 2.019-2.6 3.26 3.26 0 0 1 2.307.608c.765.7.8 2.016.848 3.409.01.324.02.649.039.972.132 2.077 1.343 3.439 3.7 4.167a4.146 4.146 0 0 1 2.92 3.461 4.218 4.218 0 0 1 -1.706 4.145z" fill="#121212" data-original="#000000" style="" class=""/><path xmlns="http://www.w3.org/2000/svg" d="m39.644 29.064a.535.535 0 0 0 .105.011.5.5 0 0 0 .488-.395 1.225 1.225 0 0 1 1.272-.849.5.5 0 0 0 .127-.992 2.208 2.208 0 0 0 -2.377 1.632.5.5 0 0 0 .385.593z" fill="#121212" data-original="#000000" style="" class=""/><rect xmlns="http://www.w3.org/2000/svg" height="2.78" rx=".78" width="1.97" x="29.4" y="23.78" fill="#121212" data-original="#000000" style="" class=""/><path xmlns="http://www.w3.org/2000/svg" d="m20.44 24.59v1.22a.773.773 0 0 1 -.78.77h-.42a.773.773 0 0 1 -.78-.77v-1.22a.781.781 0 0 1 .78-.78h.42a.781.781 0 0 1 .78.78z" fill="#121212" data-original="#000000" style="" class=""/></g></svg>
