<svg clip-rule="evenodd" fill-rule="evenodd" height="512" image-rendering="optimizeQuality" shape-rendering="geometricPrecision" text-rendering="geometricPrecision" viewBox="0 0 43.3492 43.3492" width="512" xmlns="http://www.w3.org/2000/svg"><g id="Layer_x0020_1" fill-rule="nonzero"><path d="m32.0719 11.2915h-2.5358c-.2127 0-.382-.1693-.382-.3792 0-.2111.1693-.3804.382-.3804h1.6144c-.3544-.4453-.5316-.8982-.5277-1.3545.004-.4347.1733-.8624.508-1.2762h-9.1235v3.0111c0 .2099-.1693.3792-.378.3792-.2126 0-.3819-.1693-.3819-.3792v-3.3915c0-.2099.1693-.38.3819-.38h10.4426c.1614 0 .3071.1028.3583.2575.0551.1532 0 .3237-.126.4237-.6064.4702-.9175.9285-.9214 1.3644-.0039.4446.3071.9258.9293 1.4298.122.102.1732.2713.1181.4229-.0551.1512-.1969.2524-.3583.2524z"/><path d="m29.5361 14.6826c-.0867 0-.1693-.0276-.2402-.0851-.8112-.6576-1.2168-1.3408-1.2089-2.029.004-.4356.1733-.8624.508-1.277h-9.1235v2.6307h2.1578c.2087 0 .378.1701.378.3804 0 .2099-.1693.38-.378.38h-2.5358c-.2126 0-.382-.1701-.382-.38v-3.3903c0-.2111.1694-.3804.382-.3804h10.4426c.1614 0 .3071.1028.3583.2563.0551.1536 0 .3241-.126.4241-.6064.4702-.9175.9297-.9214 1.3644-.004.4454.3071.9266.9293 1.4306.1614.1319.185.3713.0551.5347-.0748.0921-.1851.1406-.2953.1406z"/><path d="m32.0719 18.0729c-.0866 0-.1693-.0276-.2402-.0851-.8112-.6576-1.2167-1.3396-1.2089-2.0286.004-.436.1733-.8628.508-1.2766h-9.1235v3.0099c0 .2102-.1693.3804-.378.3804-.2126 0-.3819-.1702-.3819-.3804v-3.3899c0-.2103.1693-.3804.3819-.3804h10.4426c.1614 0 .3071.1028.3583.2564.0551.1547 0 .3248-.126.4236-.6064.4706-.9175.9301-.9214 1.3656-.0039.4446.3071.9257.9293 1.4298.1614.1327.1851.3721.0551.5347-.0748.0929-.185.1406-.2953.1406z"/><path d="m39.4156 27.9h-12.4193c-.2126 0-.3819-.1701-.3819-.3804v-7.2555c0-.2098.1693-.3803.3819-.3803.2087 0 .378.1705.378.3803v6.8756h12.0413c.2087 0 .3819.1704.3819.3799 0 .2103-.1732.3804-.3819.3804z"/><path d="m34.3439 24.2723h-2.2878c-.2126 0-.3819-.1705-.3819-.3804s.1693-.3804.3819-.3804h2.2878c.2126 0 .382.1705.382.3804s-.1694.3804-.382.3804z"/><path d="m39.4156 35.1567h-12.4193c-.2126 0-.3819-.1701-.3819-.38v-7.2571c0-.2095.1693-.3799.3819-.3799.2087 0 .378.1704.378.3799v6.8767h12.0413c.2087 0 .3819.1693.3819.3804 0 .2099-.1732.38-.3819.38z"/><path d="m34.3439 31.5282h-2.2878c-.2126 0-.3819-.1694-.3819-.3804 0-.2099.1693-.3804.3819-.3804h2.2878c.2126 0 .382.1705.382.3804 0 .211-.1694.3804-.382.3804z"/><path d="m39.1596 18.074c-.0157 0-.0354-.0019-.0512-.0039-.2087-.0291-.3544-.2209-.3268-.4292l.4528-3.3029h-2.5003l.4528 3.3029c.0275.2083-.1181.4001-.3269.4292-.2086.0276-.3977-.1169-.4252-.3248l-.5119-3.7349c-.0158-.1091.0157-.2189.0866-.302.0748-.0831.1772-.1307.2875-.1307h3.3745c.1103 0 .2126.0476.2875.1307.0708.0831.1023.1929.0905.302l-.5158 3.7349c-.0236.1898-.189.3287-.3741.3287z"/><path d="m37.2617 14.3392c-.13 0-.2599-.0685-.3268-.1914l-1.2128-2.1011c-.1064-.1811-.0433-.4138.1378-.5186.1811-.1051.4134-.0425.5197.1386l1.2129 2.1011c.1023.182.0433.4147-.1379.5198-.063.0347-.126.0516-.1929.0516z"/><path d="m38.2303 14.3392c-.0708 0-.1417-.0201-.2047-.0595-.1772-.1122-.2284-.3465-.1181-.5237l1.0946-1.7368c.1142-.1784.3465-.2308.5237-.119s.2323.3465.1221.5237l-1.0947 1.7369c-.0748.115-.1968.1784-.3229.1784z"/><path d="m12.5216 18.0729c-.2087 0-.382-.1694-.382-.3804 0-1.1207-.2126-1.481-.8781-1.481h-5.3472c-.6655 0-.8821.3603-.8821 1.481 0 .211-.1693.3804-.378.3804-.2126 0-.3819-.1694-.3819-.3804 0-.6127 0-2.2417 1.642-2.2417h5.3472c1.6381 0 1.6381 1.629 1.6381 2.2417 0 .211-.1693.3804-.378.3804z"/><path d="m7.8122 16.2115c-.2087 0-.378-.1704-.378-.3803v-5.8746c0-.2098.1693-.38.378-.38.2126 0 .3819.1702.3819.38v5.8746c0 .2099-.1693.3803-.3819.3803zm1.5475 0c-.2087 0-.382-.1704-.382-.3803v-5.8746c0-.2098.1733-.38.382-.38.2126 0 .3819.1702.3819.38v5.8746c0 .2099-.1693.3803-.3819.3803z"/><path d="m3.3509 9.5766h10.4937l-2.0436-6.8105h-6.4065zm11.0017.7604h-11.5136c-.1182 0-.2324-.0575-.3032-.1536-.0709-.0968-.0945-.2209-.0591-.3366l2.272-7.5705c.0473-.1607.193-.2705.3623-.2705h6.9696c.1693 0 .3189.1098.3662.2705l2.272 7.5705c.0354.1157.0118.2398-.0591.3366-.0709.0961-.1851.1536-.3071.1536z"/><path d="m.7638 19.8838h41.8255v-1.8098h-41.8255v1.8098zm42.2035.7615h-42.5854c-.2087 0-.382-.1705-.382-.3812v-2.5716c0-.2095.1733-.38.382-.38h42.5854c.2126 0 .382.1705.382.38v2.5716c0 .2107-.1694.3812-.382.3812z"/><path d="m3.9376 41.3435h-1.8232c-.2086 0-.378-.1705-.378-.3804v-20.699c0-.2098.1694-.3803.378-.3803.2127 0 .382.1705.382.3803v20.3186h1.0592v-20.3186c0-.2098.1693-.3803.382-.3803.2087 0 .378.1705.378.3803v20.699c0 .2099-.1693.3804-.378.3804z"/><path d="m41.2347 41.3435h-1.8191c-.2127 0-.382-.1705-.382-.3804v-20.699c0-.2098.1693-.3803.382-.3803.2087 0 .3819.1705.3819.3803v20.3186h1.0592v-20.3186c0-.2098.1694-.3803.378-.3803.2127 0 .382.1705.382.3803v20.699c0 .2099-.1693.3804-.382.3804z"/></g></svg>