<svg height="512pt" viewBox="-120 0 512 512" width="512pt" xmlns="http://www.w3.org/2000/svg"><path d="m271.746094 502-64-248c-1.101563-4.277344-5.46875-6.851562-9.746094-5.746094-4.277344 1.101563-6.847656 5.464844-5.746094 9.742188l13.9375 54.003906h-62.191406v-56c0-4.417969-3.582031-8-8-8s-8 3.582031-8 8v56h-62.1875l13.933594-54.003906c1.105468-4.277344-1.46875-8.640625-5.746094-9.742188-4.273438-1.105468-8.640625 1.46875-9.746094 5.746094l-64 248c-1.101562 4.277344 1.472656 8.640625 5.75 9.742188.667969.175781 1.339844.257812 2.003906.257812 3.5625 0 6.808594-2.394531 7.738282-6.003906l45.9375-177.996094h66.316406v175.996094c0 4.417968 3.582031 8 8 8s8-3.582032 8-8v-175.996094h66.320312l45.933594 177.996094c.933594 3.609375 4.179688 6.003906 7.742188 6.003906.660156 0 1.332031-.082031 2.003906-.257812 4.277344-1.101563 6.851562-5.464844 5.746094-9.742188zm0 0" fill="#9a9f96"/><path d="m248 240h-224c-4.417969 0-8 3.582031-8 8v8c0 4.417969 3.582031 8 8 8h224c4.417969 0 8-3.582031 8-8v-8c0-4.417969-3.582031-8-8-8zm0 0" fill="#e59ba4"/><path d="m231.617188 45.558594c-1.058594-3.3125-4.140626-5.558594-7.617188-5.558594-46.40625 0-96 29.421875-96 112 0 4.417969 3.582031 8 8 8h32c4.417969 0 8-3.582031 8-8 0-.597656.601562-60.3125 52.652344-97.488281 2.828125-2.023438 4.027344-5.640625 2.964844-8.953125zm0 0" fill="#a6ca3c"/><path d="m48 40c-3.476562 0-6.554688 2.246094-7.617188 5.558594s.140626 6.929687 2.96875 8.953125c51.707032 36.933593 52.644532 96.675781 52.648438 97.5.007812 4.414062 3.585938 7.988281 8 7.988281h32c4.417969 0 8-3.582031 8-8 0-82.578125-49.589844-112-96-112zm0 0" fill="#90bd0b"/><path d="m248.570312 80.019531c-2.761718-.199219-68.074218-4.476562-101.421874 26.570313-12.707032 11.832031-19.148438 27.109375-19.148438 45.410156 0 4.417969 3.582031 8 8 8h40c3.027344 0 5.796875-1.714844 7.152344-4.417969 8.3125-16.574219 36.164062-59.582031 64.847656-59.582031 4.308594 0 7.839844-3.410156 7.996094-7.714844.152344-4.304687-3.128906-7.957031-7.425782-8.265625zm0 0" fill="#bcd76d"/><path d="m124.855469 106.589844c-33.347657-31.050782-98.660157-26.765625-101.425781-26.570313-4.292969.308594-7.578126 3.960938-7.421876 8.265625.152344 4.304688 3.6875 7.714844 7.992188 7.714844 28.683594 0 56.535156 43.003906 64.847656 59.578125 1.355469 2.710937 4.125 4.421875 7.152344 4.421875h40c4.417969 0 8-3.582031 8-8 0-18.300781-6.441406-33.578125-19.144531-45.410156zm0 0" fill="#a6ca3c"/><path d="m142.996094 4.113281c-1.414063-2.539062-4.089844-4.113281-6.996094-4.113281-2.902344 0-5.582031 1.574219-6.992188 4.113281-41.234374 74.222657-17.621093 147.339844-16.59375 150.417969 1.085938 3.265625 4.144532 5.46875 7.585938 5.46875h32c3.445312 0 6.5-2.203125 7.589844-5.46875 1.027344-3.078125 24.640625-76.195312-16.59375-150.417969zm0 0" fill="#d3e49e"/><path d="m127.652344 154.53125c-1.019532-3.0625-24.382813-75.4375 15.96875-149.257812-.210938-.386719-.414063-.769532-.625-1.160157-1.414063-2.539062-4.089844-4.113281-6.996094-4.113281-2.902344 0-5.582031 1.574219-6.992188 4.113281-41.234374 74.222657-17.621093 147.339844-16.59375 150.417969 1.085938 3.265625 4.144532 5.46875 7.585938 5.46875h15.246094c-3.445313 0-6.503906-2.203125-7.59375-5.46875zm0 0" fill="#bcd76d"/><path d="m176 152h-80c-4.417969 0-8 3.582031-8 8v56c0 13.253906 10.746094 24 24 24h48c13.257812 0 24-10.746094 24-24v-56c0-4.417969-3.582031-8-8-8zm0 0" fill="#eeefed"/><path d="m120 216v-56c0-4.417969 3.582031-8 8-8h-32c-4.417969 0-8 3.582031-8 8v56c0 13.253906 10.746094 24 24 24h32c-13.253906 0-24-10.746094-24-24zm0 0" fill="#cdcfca"/></svg>